<?xml version="1.0" encoding="UTF-8" standalone="no"?>
<!-- Created with Inkscape (http://www.inkscape.org/) -->

<svg
   width="210mm"
   height="297mm"
   viewBox="0 0 210 297"
   version="1.1"
   id="svg1"
   inkscape:version="1.3.2 (091e20e, 2023-11-25, custom)"
   sodipodi:docname="Logo.svg"
   xmlns:inkscape="http://www.inkscape.org/namespaces/inkscape"
   xmlns:sodipodi="http://sodipodi.sourceforge.net/DTD/sodipodi-0.dtd"
   xmlns="http://www.w3.org/2000/svg"
   xmlns:svg="http://www.w3.org/2000/svg">
  <sodipodi:namedview
     id="namedview1"
     pagecolor="#ffffff"
     bordercolor="#000000"
     borderopacity="0.25"
     inkscape:showpageshadow="2"
     inkscape:pageopacity="0.0"
     inkscape:pagecheckerboard="0"
     inkscape:deskcolor="#d1d1d1"
     inkscape:document-units="mm"
     inkscape:zoom="0.64379276"
     inkscape:cx="323.86198"
     inkscape:cy="566.17598"
     inkscape:window-width="1280"
     inkscape:window-height="961"
     inkscape:window-x="-8"
     inkscape:window-y="-8"
     inkscape:window-maximized="1"
     inkscape:current-layer="layer1" />
  <defs
     id="defs1">
    <rect
       x="101.87197"
       y="624.56086"
       width="85.686703"
       height="121.86553"
       id="rect10" />
    <rect
       x="356.07586"
       y="588.38203"
       width="119.00931"
       height="133.29043"
       id="rect9" />
    <inkscape:perspective
       sodipodi:type="inkscape:persp3d"
       inkscape:vp_x="0 : 148.5 : 1"
       inkscape:vp_y="0 : 1000 : 0"
       inkscape:vp_z="210 : 148.5 : 1"
       inkscape:persp3d-origin="105 : 99 : 1"
       id="perspective3" />
    <rect
       x="127.31205"
       y="175.44222"
       width="487.51201"
       height="152.15343"
       id="rect1" />
  </defs>
  <g
     inkscape:label="Capa 1"
     inkscape:groupmode="layer"
     id="layer1">
    <text
       xml:space="preserve"
       transform="matrix(0.55348138,0,0,0.82368997,-21.963329,-121.03697)"
       id="text1"
       style="font-style:normal;font-variant:normal;font-weight:normal;font-stretch:normal;font-size:42.6667px;font-family:Papyrus;-inkscape-font-specification:Papyrus;white-space:pre;shape-inside:url(#rect1);fill:#007c00;fill-opacity:1"><tspan
         x="127.3125"
         y="209.07806"
         id="tspan2">Eco  Book</tspan></text>
    <path
       id="rect8"
       style="fill:#008000;fill-opacity:1;stroke-width:0.264583"
       d="m 38.97918,79.815409 c 3.068093,0 4.500386,28.083701 7.755551,29.068721 12.63954,3.82472 27.940263,-14.399291 38.396386,-15.419691 11.486809,-1.12099 18.181053,-18.43523 29.921443,-18.96849 9.04459,-0.41082 -2.06431,22.892859 17.79781,18.28797 13.3401,-3.0928 25.03969,-17.98216 38.88172,-28.082697 -4.0881,13.707267 -3.14157,32.538026 -9.12584,28.810807 -45.11795,-28.101124 -1.63713,3.08978 -2.61582,4.441659 -11.67154,16.121872 -14.47578,4.733022 -9.74685,19.844272 0.90786,2.90107 6.01685,7.87928 7.2418,18.90715 0.4376,3.93958 -16.41258,19.56366 -14.36795,23.39591 6.67304,12.50733 28.19365,22.17853 27.85895,26.77318 -14.95834,0 -2.09806,-24.18233 -6.45563,-27.50186 -4.66608,-3.55456 -12.09785,9.28291 -31.90165,16.89644 -9.23728,3.55125 -24.91115,0.84142 -37.452744,4.10514 -5.352562,1.39291 -7.399783,-6.73473 -18.647266,-6.21041 -6.279218,0.29272 -1.413515,7.41128 -9.587395,10.41987 -6.920112,2.54711 -28.873998,-77.40642 -30.723448,2.29082 1.089137,-18.36863 14.873184,-22.12963 20.197398,-34.22136 1.885436,-4.28199 -2.973609,-17.91676 -1.498607,-20.92154 12.65068,-25.77111 16.003721,-0.72284 -15.927858,-51.915891 z"
       sodipodi:nodetypes="csssscssssscssssscssc" />
    <g
       id="g16">
      <g
         id="g15">
        <g
           id="g14">
          <text
             xml:space="preserve"
             transform="matrix(0.83978626,0,0,0.75075036,-222.28468,-352.88709)"
             id="text8"
             style="font-style:normal;font-variant:normal;font-weight:normal;font-stretch:normal;font-size:102.739px;font-family:'Ink Free';-inkscape-font-specification:'Ink Free';white-space:pre;shape-inside:url(#rect9);fill:#ff6600;fill-opacity:1"><tspan
               x="356.07617"
               y="680.30092"
               id="tspan3">E</tspan></text>
        </g>
      </g>
    </g>
    <g
       id="g17">
      <g
         id="g18">
        <text
           xml:space="preserve"
           transform="matrix(0.98343936,0,0,0.75891212,-13.458771,-370.87692)"
           id="text9"
           style="font-style:normal;font-variant:normal;font-weight:normal;font-stretch:normal;font-size:64px;font-family:'Ink Free';-inkscape-font-specification:'Ink Free';white-space:pre;shape-inside:url(#rect10);fill:#ff6600;fill-opacity:1"
           inkscape:transform-center-x="-5.0276528"
           inkscape:transform-center-y="4.8506501"><tspan
             x="101.87109"
             y="681.81981"
             id="tspan4">B</tspan></text>
      </g>
    </g>
    <text
       xml:space="preserve"
       style="font-style:normal;font-variant:normal;font-weight:normal;font-stretch:normal;font-size:13.3994px;font-family:'MV Boli';-inkscape-font-specification:'MV Boli';fill:#8b4513;fill-opacity:1;stroke-width:0.358914;writing-mode:lr-tb"
       x="1.6692263"
       y="130.77034"
       id="text11"
       transform="scale(0.58665836,1.7045696)"><tspan
         sodipodi:role="line"
         id="tspan11"
         style="font-style:normal;font-variant:normal;font-weight:normal;font-stretch:normal;font-family:'MV Boli';-inkscape-font-specification:'MV Boli';fill:#8b4513;fill-opacity:1;stroke-width:0.358914;writing-mode:lr-tb"
         x="1.6692263"
         y="130.77034">&quot;HAGAMOS DEL PLANETA UN LUGAR MAS  VERDE&quot;</tspan></text>
    <path
       sodipodi:type="star"
       style="fill:#008000;fill-opacity:1;stroke-width:0.264583"
       id="path12"
       inkscape:flatsided="false"
       sodipodi:sides="5"
       sodipodi:cx="13.973182"
       sodipodi:cy="29.590265"
       sodipodi:r1="5.5138206"
       sodipodi:r2="2.7569106"
       sodipodi:arg1="1.1071487"
       sodipodi:arg2="1.7354672"
       inkscape:rounded="0"
       inkscape:randomized="0"
       d="m 16.439037,34.521976 -2.917789,-2.212095 -3.476411,1.149535 1.202181,-3.458558 -2.1675424,-2.951037 3.6607784,0.07459 2.136796,-2.973376 1.060304,3.504656 3.488155,1.11339 -3.005474,2.091408 z"
       inkscape:transform-center-x="-0.2793102"
       inkscape:transform-center-y="-0.2638148"
       transform="matrix(0.99999998,0,0,1.0396277,9.0414706,-5.0668078)" />
    <path
       sodipodi:type="star"
       style="fill:#008000;fill-opacity:1;stroke-width:0.264583"
       id="path12-1"
       inkscape:flatsided="false"
       sodipodi:sides="5"
       sodipodi:cx="13.973182"
       sodipodi:cy="29.590265"
       sodipodi:r1="5.5138206"
       sodipodi:r2="2.7569106"
       sodipodi:arg1="1.1071487"
       sodipodi:arg2="1.7354672"
       inkscape:rounded="0"
       inkscape:randomized="0"
       d="m 16.439037,34.521976 -2.917789,-2.212095 -3.476411,1.149535 1.202181,-3.458558 -2.1675424,-2.951037 3.6607784,0.07459 2.136796,-2.973376 1.060304,3.504656 3.488155,1.11339 -3.005474,2.091408 z"
       inkscape:transform-center-x="-0.2793104"
       inkscape:transform-center-y="-0.25376063"
       transform="translate(175.70921,-5.5466396)" />
  </g>
</svg>
